<svg xmlns="http://www.w3.org/2000/svg" fill="none" viewBox="-2.4 -2.4 28.8 28.8"><rect width="28.8" height="28.8" x="-2.4" y="-2.4" fill="#42ff84" stroke-width="0" rx="14.4" transform="matrix(.59 0 0 .59 4.92 4.92)"/><path stroke="#1f5123" stroke-linecap="round" stroke-linejoin="round" stroke-width="2" d="m8.5 12.5 1.509 1.509c.344.344.515.515.71.573a.8.8 0 0 0 .522-.024c.19-.075.345-.261.656-.635L16 9m.329-4.241a2.99 2.99 0 0 1 2.035.877 2.99 2.99 0 0 1 .877 2.035c.021.731.032 1.097.053 1.182.046.182-.007.053.089.215.045.075.296.34.798.872A2.99 2.99 0 0 1 21 12a2.99 2.99 0 0 1-.819 2.06c-.502.531-.753.797-.798.872-.096.162-.043.033-.089.215-.021.085-.032.45-.053 1.182a2.99 2.99 0 0 1-.877 2.035 2.99 2.99 0 0 1-2.035.877c-.731.021-1.097.032-1.182.053-.182.046-.053-.007-.215.09-.075.044-.34.295-.873.797A2.99 2.99 0 0 1 12 21a2.99 2.99 0 0 1-2.06-.819c-.531-.502-.797-.753-.872-.798-.162-.096-.033-.043-.215-.089-.085-.021-.45-.032-1.182-.053a2.99 2.99 0 0 1-2.035-.877 2.99 2.99 0 0 1-.877-2.035c-.021-.731-.032-1.097-.053-1.182-.046-.182.007-.053-.09-.215-.044-.075-.295-.34-.797-.873A2.99 2.99 0 0 1 3 12c0-.797.311-1.522.819-2.06.502-.531.753-.797.798-.872.096-.162.043-.033.089-.215.021-.085.032-.45.053-1.182a2.99 2.99 0 0 1 .877-2.035 2.99 2.99 0 0 1 2.035-.877c.731-.021 1.097-.032 1.182-.053.182-.046.053.007.215-.09.075-.044.34-.295.872-.797A2.99 2.99 0 0 1 12 3a2.99 2.99 0 0 1 2.06.819c.531.502.797.753.872.798.162.096.033.043.215.089.085.021.45.032 1.182.053Z"/></svg>